<?xml version="1.0"?>
<svg xmlns="http://www.w3.org/2000/svg" xmlns:xlink="http://www.w3.org/1999/xlink" version="1.1" viewBox="0 0 224 224" width="50px" height="50px"><g transform="translate(8.736,8.736) scale(0.922,0.922)"><g fill="none" fill-rule="nonzero" stroke="none" stroke-width="none" stroke-linecap="butt" stroke-linejoin="none" stroke-miterlimit="10" stroke-dasharray="" stroke-dashoffset="0" font-family="none" font-weight="none" font-size="none" text-anchor="none" style="mix-blend-mode: normal"><g fill="#000000" stroke="#cccccc" stroke-width="19" stroke-linejoin="round"><path d="M210.56,112c0,54.38012 -44.17988,98.56 -98.56,98.56c-54.38012,0 -98.56,-44.17988 -98.56,-98.56c0,-54.38012 44.17988,-98.56 98.56,-98.56c54.38012,0 98.56,44.17988 98.56,98.56zM22.4,112c0,49.53778 40.06222,89.6 89.6,89.6c49.53778,0 89.6,-40.06222 89.6,-89.6c0,-49.53778 -40.06222,-89.6 -89.6,-89.6c-49.53778,0 -89.6,40.06222 -89.6,89.6zM79.3275,72.9925l32.6725,32.6725l32.6725,-32.6725c0.81142,-0.83514 1.9161,-1.32157 3.08,-1.35625c1.84703,-0.05447 3.53805,1.03057 4.25823,2.73228c0.72018,1.70171 0.32178,3.67101 -1.00323,4.95897l-32.6725,32.6725l32.6725,32.6725c1.17036,1.12366 1.64181,2.79224 1.23253,4.36222c-0.40928,1.56998 -1.63533,2.79603 -3.20531,3.20531c-1.56998,0.40928 -3.23856,-0.06217 -4.36222,-1.23253l-32.6725,-32.6725l-32.6725,32.6725c-1.12366,1.17036 -2.79224,1.64181 -4.36222,1.23253c-1.56998,-0.40928 -2.79603,-1.63533 -3.20531,-3.20531c-0.40928,-1.56998 0.06217,-3.23856 1.23253,-4.36222l32.6725,-32.6725l-32.6725,-32.6725c-1.30642,-1.27148 -1.7122,-3.20773 -1.02621,-4.89676c0.68599,-1.68903 2.32695,-2.79401 4.14996,-2.79449c1.20961,0.00007 2.3678,0.48922 3.21125,1.35625z"/></g><path d="M0,224v-224h224v224z" fill="none" stroke="none" stroke-width="1" stroke-linejoin="miter"/><g fill="#cccccc" stroke="none" stroke-width="1" stroke-linejoin="miter"><path d="M112,13.44c-54.38012,0 -98.56,44.17988 -98.56,98.56c0,54.38012 44.17988,98.56 98.56,98.56c54.38012,0 98.56,-44.17988 98.56,-98.56c0,-54.38012 -44.17988,-98.56 -98.56,-98.56zM112,22.4c49.53778,0 89.6,40.06222 89.6,89.6c0,49.53778 -40.06222,89.6 -89.6,89.6c-49.53778,0 -89.6,-40.06222 -89.6,-89.6c0,-49.53778 40.06222,-89.6 89.6,-89.6zM76.11625,71.63625c-1.82302,0.00048 -3.46398,1.10547 -4.14996,2.79449c-0.68599,1.68903 -0.2802,3.62528 1.02621,4.89676l32.6725,32.6725l-32.6725,32.6725c-1.17036,1.12366 -1.64181,2.79224 -1.23253,4.36222c0.40928,1.56998 1.63533,2.79603 3.20531,3.20531c1.56998,0.40928 3.23856,-0.06217 4.36222,-1.23253l32.6725,-32.6725l32.6725,32.6725c1.12366,1.17036 2.79224,1.64181 4.36222,1.23253c1.56998,-0.40928 2.79603,-1.63533 3.20531,-3.20531c0.40928,-1.56998 -0.06217,-3.23856 -1.23253,-4.36222l-32.6725,-32.6725l32.6725,-32.6725c1.32501,-1.28796 1.72341,-3.25726 1.00323,-4.95897c-0.72018,-1.70171 -2.4112,-2.78675 -4.25823,-2.73228c-1.1639,0.03468 -2.26858,0.52112 -3.08,1.35625l-32.6725,32.6725l-32.6725,-32.6725c-0.84345,-0.86703 -2.00164,-1.35618 -3.21125,-1.35625z"/></g><path d="" fill="none" stroke="none" stroke-width="1" stroke-linejoin="miter"/></g></g></svg>
