<svg width="120" height="122" viewBox="0 0 120 122" fill="none" xmlns="http://www.w3.org/2000/svg">
<g filter="url(#filter0_dd)">
<rect x="20" y="2" width="80" height="80" rx="24" fill="url(#paint0_linear)"/>
</g>
<path d="M85 54V24C85 21.25 82.75 19 80 19H50C47.25 19 45 21.25 45 24V54C45 56.75 47.25 59 50 59H80C82.75 59 85 56.75 85 54ZM57.5 44L62.575 50.775L70 41.5L80 54H50L57.5 44ZM35 29V64C35 66.75 37.25 69 40 69H75V64H40V29H35Z" fill="white"/>
<defs>
<filter id="filter0_dd" x="0" y="0" width="120" height="122" filterUnits="userSpaceOnUse" color-interpolation-filters="sRGB">
<feFlood flood-opacity="0" result="BackgroundImageFix"/>
<feColorMatrix in="SourceAlpha" type="matrix" values="0 0 0 0 0 0 0 0 0 0 0 0 0 0 0 0 0 0 127 0"/>
<feOffset dy="20"/>
<feGaussianBlur stdDeviation="10"/>
<feColorMatrix type="matrix" values="0 0 0 0 0 0 0 0 0 0 0 0 0 0 0 0 0 0 0.29876 0"/>
<feBlend mode="normal" in2="BackgroundImageFix" result="effect1_dropShadow"/>
<feColorMatrix in="SourceAlpha" type="matrix" values="0 0 0 0 0 0 0 0 0 0 0 0 0 0 0 0 0 0 127 0"/>
<feOffset dy="2"/>
<feGaussianBlur stdDeviation="2"/>
<feColorMatrix type="matrix" values="0 0 0 0 0 0 0 0 0 0 0 0 0 0 0 0 0 0 0.5 0"/>
<feBlend mode="normal" in2="effect1_dropShadow" result="effect2_dropShadow"/>
<feBlend mode="normal" in="SourceGraphic" in2="effect2_dropShadow" result="shape"/>
</filter>
<linearGradient id="paint0_linear" x1="20" y1="42" x2="100" y2="42" gradientUnits="userSpaceOnUse">
<stop stop-color="#3437C7"/>
<stop offset="1" stop-color="#4B55E1"/>
</linearGradient>
</defs>
</svg>
