<svg width="120" height="122" viewBox="0 0 120 122" fill="none" xmlns="http://www.w3.org/2000/svg">
<g filter="url(#filter0_dd)">
<rect x="20" y="2" width="80" height="80" rx="24" fill="url(#paint0_linear)"/>
</g>
<path d="M80.8061 21.6571H39.5261C36.9805 21.6571 34.9395 23.6982 34.9395 26.2438V53.7638C34.9395 56.2864 36.9805 58.3504 39.5261 58.3504H50.9928V62.9371H69.3395V58.3504H80.8061C83.3288 58.3504 85.3699 56.2864 85.3699 53.7638L85.3928 26.2438C85.3928 23.6982 83.3288 21.6571 80.8061 21.6571ZM80.8061 53.7638H39.5261V26.2438H80.8061V53.7638Z" fill="white"/>
<path d="M80.8061 21.6571H39.5261C36.9805 21.6571 34.9395 23.6982 34.9395 26.2438V53.7638C34.9395 56.2864 36.9805 58.3504 39.5261 58.3504H50.9928V62.9371H69.3395V58.3504H80.8061C83.3288 58.3504 85.3699 56.2864 85.3699 53.7638L85.3928 26.2438C85.3928 23.6982 83.3288 21.6571 80.8061 21.6571ZM80.8061 53.7638H39.5261V26.2438H80.8061V53.7638Z" stroke="url(#paint1_linear)"/>
<defs>
<filter id="filter0_dd" x="0" y="0" width="120" height="122" filterUnits="userSpaceOnUse" color-interpolation-filters="sRGB">
<feFlood flood-opacity="0" result="BackgroundImageFix"/>
<feColorMatrix in="SourceAlpha" type="matrix" values="0 0 0 0 0 0 0 0 0 0 0 0 0 0 0 0 0 0 127 0"/>
<feOffset dy="20"/>
<feGaussianBlur stdDeviation="10"/>
<feColorMatrix type="matrix" values="0 0 0 0 0 0 0 0 0 0 0 0 0 0 0 0 0 0 0.29876 0"/>
<feBlend mode="normal" in2="BackgroundImageFix" result="effect1_dropShadow"/>
<feColorMatrix in="SourceAlpha" type="matrix" values="0 0 0 0 0 0 0 0 0 0 0 0 0 0 0 0 0 0 127 0"/>
<feOffset dy="2"/>
<feGaussianBlur stdDeviation="2"/>
<feColorMatrix type="matrix" values="0 0 0 0 0 0 0 0 0 0 0 0 0 0 0 0 0 0 0.5 0"/>
<feBlend mode="normal" in2="effect1_dropShadow" result="effect2_dropShadow"/>
<feBlend mode="normal" in="SourceGraphic" in2="effect2_dropShadow" result="shape"/>
</filter>
<linearGradient id="paint0_linear" x1="5.88518" y1="69.0552" x2="75.9991" y2="117.057" gradientUnits="userSpaceOnUse">
<stop stop-color="#FD009A"/>
<stop offset="1" stop-color="#FF5757"/>
<stop offset="1" stop-color="#FE2CB7"/>
</linearGradient>
<linearGradient id="paint1_linear" x1="26.0377" y1="56.2576" x2="64.2363" y2="88.2208" gradientUnits="userSpaceOnUse">
<stop stop-color="#FD009A"/>
<stop offset="1" stop-color="#FF5757"/>
<stop offset="1" stop-color="#FE2CB7"/>
</linearGradient>
</defs>
</svg>
