<svg width="120" height="122" viewBox="0 0 120 122" fill="none" xmlns="http://www.w3.org/2000/svg">
<g filter="url(#filter0_dd)">
<rect x="20" y="2" width="80" height="80" rx="24" fill="url(#paint0_linear)"/>
</g>
<path d="M75.8786 44.8V64.4H37.4848V25.2H51.2517C51.3888 23.212 51.855 21.336 52.5681 19.6H37.4848C34.4682 19.6 32 22.12 32 25.2V64.4C32 67.48 34.4682 70 37.4848 70H75.8786C78.8952 70 81.3634 67.48 81.3634 64.4V50.4L75.8786 44.8ZM71.7649 58.8H41.5984L49.1401 48.916L54.5152 55.524L62.0568 45.612L71.7649 58.8ZM79.4437 33.292C80.6503 31.332 81.3634 29.064 81.3634 26.6C81.3634 19.628 75.8511 14 69.0225 14C62.1939 14 56.6817 19.628 56.6817 26.6C56.6817 33.572 62.1939 39.2 68.9951 39.2C71.4084 39.2 73.6572 38.472 75.5495 37.24L84.1058 45.976L88 42L79.4437 33.292ZM69.0225 33.6C65.238 33.6 62.1665 30.464 62.1665 26.6C62.1665 22.736 65.238 19.6 69.0225 19.6C72.8071 19.6 75.8786 22.736 75.8786 26.6C75.8786 30.464 72.8071 33.6 69.0225 33.6Z" fill="white"/>
<defs>
<filter id="filter0_dd" x="0" y="0" width="120" height="122" filterUnits="userSpaceOnUse" color-interpolation-filters="sRGB">
<feFlood flood-opacity="0" result="BackgroundImageFix"/>
<feColorMatrix in="SourceAlpha" type="matrix" values="0 0 0 0 0 0 0 0 0 0 0 0 0 0 0 0 0 0 127 0"/>
<feOffset dy="20"/>
<feGaussianBlur stdDeviation="10"/>
<feColorMatrix type="matrix" values="0 0 0 0 0 0 0 0 0 0 0 0 0 0 0 0 0 0 0.29876 0"/>
<feBlend mode="normal" in2="BackgroundImageFix" result="effect1_dropShadow"/>
<feColorMatrix in="SourceAlpha" type="matrix" values="0 0 0 0 0 0 0 0 0 0 0 0 0 0 0 0 0 0 127 0"/>
<feOffset dy="2"/>
<feGaussianBlur stdDeviation="2"/>
<feColorMatrix type="matrix" values="0 0 0 0 0 0 0 0 0 0 0 0 0 0 0 0 0 0 0.5 0"/>
<feBlend mode="normal" in2="effect1_dropShadow" result="effect2_dropShadow"/>
<feBlend mode="normal" in="SourceGraphic" in2="effect2_dropShadow" result="shape"/>
</filter>
<linearGradient id="paint0_linear" x1="5.88518" y1="69.0552" x2="75.9991" y2="117.057" gradientUnits="userSpaceOnUse">
<stop stop-color="#FD009A"/>
<stop offset="1" stop-color="#FF5757"/>
<stop offset="1" stop-color="#FE2CB7"/>
</linearGradient>
</defs>
</svg>
